<svg xmlns="http://www.w3.org/2000/svg" width="50" height="50" fill="none" viewBox="0 0 50 50">
  <path fill="#6C5DE5" d="M50 25c0 13.807-11.193 25-25 25S0 38.807 0 25 11.193 0 25 0s25 11.193 25 25Z"/>
  <path fill="#000" d="M15.416 40.808c-.384 0-.672-.128-.864-.384-.192-.256-.288-.597-.288-1.024 0-.81.277-1.632.832-2.464.47-.683 1.11-1.45 1.92-2.304a50.37 50.37 0 0 1 2.656-2.528 37.89 37.89 0 0 1 2.624-2.144 75.42 75.42 0 0 1 2.336-1.696 20.445 20.445 0 0 1 1.76-1.152c.555-.32 1.195-.65 1.92-.992 1.963-3.392 3.147-6.827 3.552-10.304.021-.064.032-.213.032-.448 0-.875-.363-1.312-1.088-1.312-.533 0-1.259.235-2.176.704a14.79 14.79 0 0 0-1.76 1.056 24.33 24.33 0 0 0-1.664 1.248c-.49.384-.832.693-1.024.928a24.527 24.527 0 0 0-2.144 2.816c-.619.981-1.077 1.877-1.376 2.688a3.894 3.894 0 0 0-.32 1.504c0 .81.395 1.152 1.184 1.024 1.003-.17 1.963-.48 2.88-.928.917-.448 1.675-.917 2.272-1.408a3.26 3.26 0 0 1 .384-.192.971.971 0 0 1 .352-.096c.043 0 .064.01.064.032 0 .064-.053.15-.16.256-1.045.81-2.027 1.472-2.944 1.984a8.48 8.48 0 0 1-2.816.96 9.153 9.153 0 0 0-.48.064h-.32c-.64 0-1.12-.15-1.44-.448-.32-.299-.48-.715-.48-1.248 0-.875.373-1.973 1.12-3.296.747-1.344 1.717-2.677 2.912-4 .896-1.003 1.824-1.845 2.784-2.528.96-.704 1.877-1.259 2.752-1.664.875-.405 1.61-.65 2.208-.736.064-.021.192-.032.384-.032.64 0 1.152.213 1.536.64.405.427.608 1.024.608 1.792 0 .085-.01.181-.032.288 0 .107-.01.235-.032.384-.49 3.285-1.59 6.55-3.296 9.792l.512-.224c.235-.085.427-.128.576-.128.299 0 .448.064.448.192 0 .085-.085.181-.256.288l-.96.48a24.89 24.89 0 0 1-.864.352 79.873 79.873 0 0 1-3.36 4.8 57.708 57.708 0 0 1-3.808 4.576c-1.323 1.45-2.656 2.667-4 3.648-1.067.79-1.952 1.184-2.656 1.184Zm.544-1.76c.555 0 1.195-.299 1.92-.896a32.283 32.283 0 0 0 2.208-1.984 52.807 52.807 0 0 0 2.464-2.432 68.295 68.295 0 0 0 2.208-2.368c.661-.768 1.152-1.397 1.472-1.888.256-.405.49-.779.704-1.12.213-.363.405-.693.576-.992-.47.235-.917.48-1.344.736-.427.235-.832.48-1.216.736-.277.17-.63.416-1.056.736l-1.536 1.152c-.704.512-1.472 1.163-2.304 1.952a41.318 41.318 0 0 0-2.368 2.368 22.786 22.786 0 0 0-1.792 2.24c-.363.533-.544.95-.544 1.248 0 .256.107.416.32.48.021.021.117.032.288.032Zm12.003-4.704a3.72 3.72 0 0 1-.896-.096c-.235-.064-.352-.15-.352-.256 0-.17.17-.267.512-.288.32-.021.533-.053.64-.096.192-.043.416-.075.672-.096.234-.043.426-.075.576-.096 1.024-.299 1.536-.757 1.536-1.376 0-.427-.224-.97-.672-1.632a2.328 2.328 0 0 1-.416-1.344c0-.597.181-1.184.544-1.76a6.286 6.286 0 0 1 1.408-1.504c.576-.448 1.152-.747 1.728-.896.256-.064.522-.096.8-.096.448 0 .768.107.96.32.128.128.192.405.192.832 0 .32-.054.65-.16.992-.107.32-.256.587-.448.8-.107.107-.192.16-.256.16-.107 0-.16-.15-.16-.448l.032-.64c.021-.17.032-.32.032-.448.021-.128.032-.235.032-.32 0-.363-.075-.576-.224-.64a1.763 1.763 0 0 0-.352-.064c-.448 0-.928.203-1.44.608a5.204 5.204 0 0 0-1.248 1.408 1.24 1.24 0 0 0-.192.704c0 .341.085.747.256 1.216.192.448.33.779.416.992.213.47.373.875.48 1.216.128.341.192.64.192.896 0 .128-.01.224-.032.288.106-.043.362-.107.768-.192.362-.085.672-.128.928-.128.15 0 .224.032.224.096 0 .021-.064.096-.192.224-.064.064-.267.17-.608.32-.32.128-.704.267-1.152.416-.427.15-.854.288-1.28.416-.427.128-.79.224-1.088.288-.512.15-1.099.224-1.76.224Z"/>
</svg>
